<svg xmlns="http://www.w3.org/2000/svg" viewBox="0 -14 120 136"><defs><radialGradient id="lu-white" cx="45%" cy="35%" r="72%"><stop offset="0" stop-color="#ffffff"/><stop offset="1" stop-color="#eef1f5"/></radialGradient></defs>
<ellipse id="foot-l" cx="45" cy="115" rx="12" ry="6" fill="#f8d85e" stroke="#dcb23a" stroke-width="2"/>
<ellipse id="foot-r" cx="75" cy="115" rx="12" ry="6" fill="#f8d85e" stroke="#dcb23a" stroke-width="2"/>
<ellipse cx="60" cy="98" rx="27" ry="20" fill="url(#lu-white)" stroke="#cfd5dc" stroke-width="2"/>
<circle cx="22" cy="24" r="15" fill="#26292f"/><circle cx="98" cy="24" r="15" fill="#26292f"/>
<ellipse cx="60" cy="60" rx="51" ry="41" fill="url(#lu-white)" stroke="#cfd5dc" stroke-width="2.5"/>
<circle cx="102.5" cy="22.0" r="5" fill="#6cc3d8"/><circle cx="99.25" cy="27.655" r="5" fill="#6cc3d8"/><circle cx="92.75" cy="27.655" r="5" fill="#6cc3d8"/><circle cx="89.5" cy="22.0" r="5" fill="#6cc3d8"/><circle cx="92.75" cy="16.345" r="5" fill="#6cc3d8"/><circle cx="99.25" cy="16.345" r="5" fill="#6cc3d8"/><circle cx="96" cy="22" r="4.2" fill="#f3e36a"/>
<path transform="translate(19 20) scale(0.8)" fill="#f05a5a" d="M0 4C-4 1-6.5-2-4-4C-2.4-5.2-.7-4.4 0-3.2C.7-4.4 2.4-5.2 4-4C6.5-2 4 1 0 4Z"/>
<path transform="translate(51 19) scale(1.1)" fill="#6cc3d8" d="M0 4C-4 1-6.5-2-4-4C-2.4-5.2-.7-4.4 0-3.2C.7-4.4 2.4-5.2 4-4C6.5-2 4 1 0 4Z"/><path transform="translate(62 13) scale(1.4)" fill="#f3e36a" d="M0 4C-4 1-6.5-2-4-4C-2.4-5.2-.7-4.4 0-3.2C.7-4.4 2.4-5.2 4-4C6.5-2 4 1 0 4Z"/>
<path transform="translate(32 44) scale(0.8)" fill="#f3e36a" d="M0-4L1 -1 4 0 1 1 0 4-1 1-4 0-1-1Z"/><path transform="translate(88 47) scale(0.7)" fill="#6cc3d8" d="M0-4L1 -1 4 0 1 1 0 4-1 1-4 0-1-1Z"/>
<ellipse cx="42" cy="64" rx="15" ry="12.5" fill="#26292f" transform="rotate(-25 42 64)"/><ellipse cx="78" cy="64" rx="15" ry="12.5" fill="#26292f" transform="rotate(25 78 64)"/>
<g id="eyes-open"><circle cx="43" cy="64" r="7.5" fill="#26292f" stroke="#fff" stroke-width="2.2"/><circle cx="77" cy="64" r="7.5" fill="#26292f" stroke="#fff" stroke-width="2.2"/><path transform="translate(43 65) scale(0.85)" fill="#6cc3d8" d="M0 4C-4 1-6.5-2-4-4C-2.4-5.2-.7-4.4 0-3.2C.7-4.4 2.4-5.2 4-4C6.5-2 4 1 0 4Z"/><path transform="translate(77 65) scale(0.85)" fill="#f3e36a" d="M0 4C-4 1-6.5-2-4-4C-2.4-5.2-.7-4.4 0-3.2C.7-4.4 2.4-5.2 4-4C6.5-2 4 1 0 4Z"/><path transform="translate(39.5 60.5) scale(0.55)" fill="#fff" d="M0-4L1 -1 4 0 1 1 0 4-1 1-4 0-1-1Z"/><path transform="translate(73.5 60.5) scale(0.55)" fill="#fff" d="M0-4L1 -1 4 0 1 1 0 4-1 1-4 0-1-1Z"/></g><g id="eyes-closed" visibility="hidden" fill="none" stroke="#fff" stroke-width="2.6" stroke-linecap="round"><path d="M36 65Q43 71 50 65"/><path d="M70 65Q77 71 84 65"/></g>
<ellipse cx="60" cy="80" rx="13" ry="7.5" fill="#f8d85e" stroke="#dcb23a" stroke-width="2"/>
<path d="M50 81Q60 85 70 81" fill="none" stroke="#dcb23a" stroke-width="1.6" stroke-linecap="round"/>
<rect x="26" y="83" width="2.6" height="6.5" rx="1.3" fill="#f06c6c"/><rect x="31" y="83" width="2.6" height="6.5" rx="1.3" fill="#f06c6c"/><rect x="86.4" y="83" width="2.6" height="6.5" rx="1.3" fill="#f06c6c"/><rect x="91.4" y="83" width="2.6" height="6.5" rx="1.3" fill="#f06c6c"/>
<ellipse cx="31" cy="99" rx="13" ry="10.5" fill="#26292f" stroke="#26292f" stroke-width="2"/><ellipse cx="89" cy="99" rx="13" ry="10.5" fill="#26292f" stroke="#26292f" stroke-width="2"/></svg>
