<svg xmlns="http://www.w3.org/2000/svg" viewBox="0 0 480 150" preserveAspectRatio="xMidYMax slice"><defs><linearGradient id="ynight" x1="0" y1="0" x2="0" y2="1"><stop offset="0" stop-color="#1a1030"/><stop offset="1" stop-color="#3a1f3f"/></linearGradient><filter id="glow" x="-50%" y="-50%" width="200%" height="200%"><feGaussianBlur stdDeviation="2.2" result="b"/><feMerge><feMergeNode in="b"/><feMergeNode in="SourceGraphic"/></feMerge></filter></defs>
<rect width="480" height="150" fill="url(#ynight)"/>
<rect x="0" y="22" width="60" height="84" fill="#4a2f3f"/><rect x="8" y="32" width="10" height="10" fill="#ffcf7a" opacity=".55"/><rect x="26" y="32" width="10" height="10" fill="#ffcf7a" opacity=".55"/><rect x="44" y="32" width="10" height="10" fill="#ffcf7a" opacity=".55"/><rect x="8" y="50" width="10" height="10" fill="#ffcf7a" opacity=".55"/><rect x="26" y="50" width="10" height="10" fill="#ffcf7a" opacity=".55"/><rect x="44" y="50" width="10" height="10" fill="#ffcf7a" opacity=".55"/><rect x="8" y="68" width="10" height="10" fill="#ffcf7a" opacity=".55"/><rect x="26" y="68" width="10" height="10" fill="#ffcf7a" opacity=".55"/><rect x="44" y="68" width="10" height="10" fill="#ffcf7a" opacity=".55"/><rect x="60" y="10" width="50" height="96" fill="#3f2a40"/><rect x="68" y="20" width="10" height="10" fill="#ffcf7a" opacity=".55"/><rect x="86" y="20" width="10" height="10" fill="#ffcf7a" opacity=".55"/><rect x="68" y="38" width="10" height="10" fill="#ffcf7a" opacity=".55"/><rect x="86" y="38" width="10" height="10" fill="#ffcf7a" opacity=".55"/><rect x="68" y="56" width="10" height="10" fill="#ffcf7a" opacity=".55"/><rect x="86" y="56" width="10" height="10" fill="#ffcf7a" opacity=".55"/><rect x="68" y="74" width="10" height="10" fill="#ffcf7a" opacity=".55"/><rect x="86" y="74" width="10" height="10" fill="#ffcf7a" opacity=".55"/><rect x="110" y="28" width="64" height="78" fill="#523043"/><rect x="118" y="38" width="10" height="10" fill="#ffcf7a" opacity=".55"/><rect x="136" y="38" width="10" height="10" fill="#ffcf7a" opacity=".55"/><rect x="154" y="38" width="10" height="10" fill="#ffcf7a" opacity=".55"/><rect x="118" y="56" width="10" height="10" fill="#ffcf7a" opacity=".55"/><rect x="136" y="56" width="10" height="10" fill="#ffcf7a" opacity=".55"/><rect x="154" y="56" width="10" height="10" fill="#ffcf7a" opacity=".55"/><rect x="118" y="74" width="10" height="10" fill="#ffcf7a" opacity=".55"/><rect x="136" y="74" width="10" height="10" fill="#ffcf7a" opacity=".55"/><rect x="154" y="74" width="10" height="10" fill="#ffcf7a" opacity=".55"/><rect x="174" y="6" width="56" height="100" fill="#3a2638"/><rect x="182" y="16" width="10" height="10" fill="#ffcf7a" opacity=".55"/><rect x="200" y="16" width="10" height="10" fill="#ffcf7a" opacity=".55"/><rect x="182" y="34" width="10" height="10" fill="#ffcf7a" opacity=".55"/><rect x="200" y="34" width="10" height="10" fill="#ffcf7a" opacity=".55"/><rect x="182" y="52" width="10" height="10" fill="#ffcf7a" opacity=".55"/><rect x="200" y="52" width="10" height="10" fill="#ffcf7a" opacity=".55"/><rect x="182" y="70" width="10" height="10" fill="#ffcf7a" opacity=".55"/><rect x="200" y="70" width="10" height="10" fill="#ffcf7a" opacity=".55"/><rect x="230" y="20" width="70" height="86" fill="#4a2f3f"/><rect x="238" y="30" width="10" height="10" fill="#ffcf7a" opacity=".55"/><rect x="256" y="30" width="10" height="10" fill="#ffcf7a" opacity=".55"/><rect x="274" y="30" width="10" height="10" fill="#ffcf7a" opacity=".55"/><rect x="238" y="48" width="10" height="10" fill="#ffcf7a" opacity=".55"/><rect x="256" y="48" width="10" height="10" fill="#ffcf7a" opacity=".55"/><rect x="274" y="48" width="10" height="10" fill="#ffcf7a" opacity=".55"/><rect x="238" y="66" width="10" height="10" fill="#ffcf7a" opacity=".55"/><rect x="256" y="66" width="10" height="10" fill="#ffcf7a" opacity=".55"/><rect x="274" y="66" width="10" height="10" fill="#ffcf7a" opacity=".55"/><rect x="300" y="12" width="54" height="94" fill="#43293d"/><rect x="308" y="22" width="10" height="10" fill="#ffcf7a" opacity=".55"/><rect x="326" y="22" width="10" height="10" fill="#ffcf7a" opacity=".55"/><rect x="308" y="40" width="10" height="10" fill="#ffcf7a" opacity=".55"/><rect x="326" y="40" width="10" height="10" fill="#ffcf7a" opacity=".55"/><rect x="308" y="58" width="10" height="10" fill="#ffcf7a" opacity=".55"/><rect x="326" y="58" width="10" height="10" fill="#ffcf7a" opacity=".55"/><rect x="308" y="76" width="10" height="10" fill="#ffcf7a" opacity=".55"/><rect x="326" y="76" width="10" height="10" fill="#ffcf7a" opacity=".55"/><rect x="354" y="26" width="66" height="80" fill="#523043"/><rect x="362" y="36" width="10" height="10" fill="#ffcf7a" opacity=".55"/><rect x="380" y="36" width="10" height="10" fill="#ffcf7a" opacity=".55"/><rect x="398" y="36" width="10" height="10" fill="#ffcf7a" opacity=".55"/><rect x="362" y="54" width="10" height="10" fill="#ffcf7a" opacity=".55"/><rect x="380" y="54" width="10" height="10" fill="#ffcf7a" opacity=".55"/><rect x="398" y="54" width="10" height="10" fill="#ffcf7a" opacity=".55"/><rect x="362" y="72" width="10" height="10" fill="#ffcf7a" opacity=".55"/><rect x="380" y="72" width="10" height="10" fill="#ffcf7a" opacity=".55"/><rect x="398" y="72" width="10" height="10" fill="#ffcf7a" opacity=".55"/><rect x="420" y="8" width="60" height="98" fill="#3f2a40"/><rect x="428" y="18" width="10" height="10" fill="#ffcf7a" opacity=".55"/><rect x="446" y="18" width="10" height="10" fill="#ffcf7a" opacity=".55"/><rect x="464" y="18" width="10" height="10" fill="#ffcf7a" opacity=".55"/><rect x="428" y="36" width="10" height="10" fill="#ffcf7a" opacity=".55"/><rect x="446" y="36" width="10" height="10" fill="#ffcf7a" opacity=".55"/><rect x="464" y="36" width="10" height="10" fill="#ffcf7a" opacity=".55"/><rect x="428" y="54" width="10" height="10" fill="#ffcf7a" opacity=".55"/><rect x="446" y="54" width="10" height="10" fill="#ffcf7a" opacity=".55"/><rect x="464" y="54" width="10" height="10" fill="#ffcf7a" opacity=".55"/><rect x="428" y="72" width="10" height="10" fill="#ffcf7a" opacity=".55"/><rect x="446" y="72" width="10" height="10" fill="#ffcf7a" opacity=".55"/><rect x="464" y="72" width="10" height="10" fill="#ffcf7a" opacity=".55"/>
<path d="M0 14Q240 34 480 14" fill="none" stroke="#6a4a5a" stroke-width=".8"/><ellipse cx="20" cy="26" rx="5" ry="6" fill="#e8343a" filter="url(#glow)"/><ellipse cx="54" cy="18" rx="5" ry="6" fill="#e8343a" filter="url(#glow)"/><ellipse cx="88" cy="22" rx="5" ry="6" fill="#e8343a" filter="url(#glow)"/><ellipse cx="122" cy="26" rx="5" ry="6" fill="#e8343a" filter="url(#glow)"/><ellipse cx="156" cy="18" rx="5" ry="6" fill="#e8343a" filter="url(#glow)"/><ellipse cx="190" cy="22" rx="5" ry="6" fill="#e8343a" filter="url(#glow)"/><ellipse cx="224" cy="26" rx="5" ry="6" fill="#e8343a" filter="url(#glow)"/><ellipse cx="258" cy="18" rx="5" ry="6" fill="#e8343a" filter="url(#glow)"/><ellipse cx="292" cy="22" rx="5" ry="6" fill="#e8343a" filter="url(#glow)"/><ellipse cx="326" cy="26" rx="5" ry="6" fill="#e8343a" filter="url(#glow)"/><ellipse cx="360" cy="18" rx="5" ry="6" fill="#e8343a" filter="url(#glow)"/><ellipse cx="394" cy="22" rx="5" ry="6" fill="#e8343a" filter="url(#glow)"/><ellipse cx="428" cy="26" rx="5" ry="6" fill="#e8343a" filter="url(#glow)"/><ellipse cx="462" cy="18" rx="5" ry="6" fill="#e8343a" filter="url(#glow)"/>
<rect x="48" y="20" width="12" height="46" rx="1" fill="#d62f2f" stroke="#ffd23f" stroke-width="1.2" filter="url(#glow)"/><rect x="51" y="24" width="6" height="5" fill="#ffe8a3"/><rect x="51" y="33" width="6" height="5" fill="#ffe8a3"/><rect x="51" y="42" width="6" height="5" fill="#ffe8a3"/><rect x="51" y="51" width="6" height="5" fill="#ffe8a3"/><rect x="164" y="14" width="12" height="52" rx="1" fill="#d62f2f" stroke="#ffd23f" stroke-width="1.2" filter="url(#glow)"/><rect x="167" y="18" width="6" height="5" fill="#ffe8a3"/><rect x="167" y="27" width="6" height="5" fill="#ffe8a3"/><rect x="167" y="36" width="6" height="5" fill="#ffe8a3"/><rect x="167" y="45" width="6" height="5" fill="#ffe8a3"/><rect x="167" y="54" width="6" height="5" fill="#ffe8a3"/><rect x="292" y="18" width="12" height="48" rx="1" fill="#d62f2f" stroke="#ffd23f" stroke-width="1.2" filter="url(#glow)"/><rect x="295" y="22" width="6" height="5" fill="#ffe8a3"/><rect x="295" y="31" width="6" height="5" fill="#ffe8a3"/><rect x="295" y="40" width="6" height="5" fill="#ffe8a3"/><rect x="295" y="49" width="6" height="5" fill="#ffe8a3"/><rect x="410" y="12" width="12" height="56" rx="1" fill="#d62f2f" stroke="#ffd23f" stroke-width="1.2" filter="url(#glow)"/><rect x="413" y="16" width="6" height="5" fill="#ffe8a3"/><rect x="413" y="25" width="6" height="5" fill="#ffe8a3"/><rect x="413" y="34" width="6" height="5" fill="#ffe8a3"/><rect x="413" y="43" width="6" height="5" fill="#ffe8a3"/><rect x="413" y="52" width="6" height="5" fill="#ffe8a3"/>
<text x="236" y="78" fill="#ffd23f" font-size="16" font-weight="700" text-anchor="middle" font-family="sans-serif" filter="url(#glow)">เยาวราช</text>
<rect x="360" y="86" width="56" height="30" rx="3" fill="#c9c3bb"/><rect x="364" y="90" width="48" height="14" fill="#e6f4f8" opacity=".8"/>
<circle cx="372" cy="98" r="4" fill="#d4843f"/><circle cx="384" cy="98" r="4" fill="#e2b04f"/><circle cx="396" cy="98" r="4" fill="#d4843f"/>
<path d="M356 84q32-20 64 0Z" fill="#e8343a"/><path d="M388 70v14" stroke="#ccc"/>
<circle cx="368" cy="122" r="5" fill="#2a2232"/><circle cx="408" cy="122" r="5" fill="#2a2232"/>
<path d="M374 82q-3-6 0-10M384 80q-3-6 0-10" stroke="#ddd" stroke-width="1.2" fill="none" opacity=".7"/>
<rect y="106" width="480" height="22" fill="#5a4552"/><path d="M0 106H480" stroke="#7a6070" stroke-width="2"/>
<rect y="128" width="480" height="22" fill="#2a2232"/></svg>
