<svg xmlns="http://www.w3.org/2000/svg" viewBox="-20 -14 200 136"><path d="M9 62Q9 12 60 12Q111 12 111 62" fill="none" stroke="#3a3550" stroke-width="6" stroke-linecap="round"/><rect x="0" y="50" width="17" height="27" rx="8" fill="#ff8fb0" stroke="#3a3550" stroke-width="2.4"/><rect x="103" y="50" width="17" height="27" rx="8" fill="#ff8fb0" stroke="#3a3550" stroke-width="2.4"/><g fill="#5b8def"><ellipse cx="138" cy="40" rx="4.5" ry="3.4" transform="rotate(-20 138 40)"/><rect x="141" y="25" width="2" height="15"/><path d="M141 25q7 2 7 9q-2-4-7-5Z"/></g><g fill="#f06c9a"><ellipse cx="160" cy="18" rx="4.5" ry="3.4" transform="rotate(-20 160 18)"/><rect x="163" y="3" width="2" height="15"/><path d="M163 3q7 2 7 9q-2-4-7-5Z"/></g></svg>
